<svg width="440" height="447" viewBox="0 0 440 447" fill="none" xmlns="http://www.w3.org/2000/svg">
<path opacity="0.3" d="M383.233 374.826C371.894 386.514 361.748 393.384 353.981 398.57C278.223 449.154 191.624 434.575 164.851 429.591C121.654 421.55 85.1892 415.879 53.8609 387.573C-17.3295 323.257 -13.8663 189.086 40.5319 105.974C46.981 96.1196 101.298 15.6078 188.084 4.26255C190.207 3.98556 191.791 3.82705 193.177 3.67976C206.602 2.258 289.799 -5.24466 357.637 51.5904C367.347 59.7255 382.975 74.401 397.467 96.7825C450.454 178.618 450.622 305.363 383.235 374.824L383.233 374.826Z" fill="url(#paint0_linear_43_5795)"/>
<path d="M437.132 356.508C430.817 292.815 415.016 134.621 411.566 111.5C407.23 82.4384 371.619 88.8523 371.619 88.8523L363.993 382.938H413.646C420.319 382.938 426.683 380.061 431.155 375.018C435.627 369.974 437.801 363.269 437.13 356.508H437.132Z" fill="url(#paint1_linear_43_5795)"/>
<path d="M35.423 390.351C19.9181 390.023 7.61545 377.186 7.94367 361.681L13.0079 122.933C13.2865 109.761 23.8392 99.12 37.008 98.7278L383.523 88.4472C393.828 88.1414 402.339 96.4286 402.308 106.738L401.477 380.479C401.449 390.166 393.478 397.945 383.794 397.74L35.423 390.351V390.351Z" fill="url(#paint2_linear_43_5795)"/>
<path d="M13.091 370.311C8.12928 370.234 4.38276 365.791 5.15288 360.888C10.2651 328.378 26.3175 216.554 21.1685 123.709C20.9331 119.476 24.2153 115.875 28.4534 115.739L376.529 104.636C381.302 104.484 385.302 108.209 385.483 112.982C386.962 152.016 392.476 312.76 385.263 369.901C384.825 373.378 381.834 375.962 378.329 375.908L13.091 370.311V370.311Z" fill="url(#paint3_linear_43_5795)"/>
<path opacity="0.6" d="M21.8858 366.654C17.1114 366.58 13.5057 362.304 14.247 357.587C19.1671 326.302 34.6159 218.689 29.6606 129.339C29.4349 125.264 32.5922 121.799 36.6701 121.67L371.64 110.984C376.233 110.838 380.082 114.425 380.255 119.017C381.68 156.581 386.986 311.273 380.044 366.262C379.621 369.608 376.744 372.094 373.37 372.043L21.8858 366.655V366.654Z" fill="white"/>
<path opacity="0.72" d="M227.765 178.434L227.254 202.559C227.176 206.242 230.128 209.274 233.811 209.295L258.556 209.434C262.158 209.455 265.11 206.581 265.187 202.979L265.725 177.616C265.805 173.804 262.648 170.717 258.839 170.887L234.069 171.985C230.597 172.139 227.84 174.96 227.767 178.434H227.765Z" fill="white"/>
<path opacity="0.72" d="M141.253 209.092L165.997 209.231C169.6 209.252 172.552 206.376 172.629 202.774L173.087 181.203C173.167 177.413 170.045 174.334 166.255 174.472L141.489 175.362C137.996 175.487 135.205 178.317 135.132 181.814L134.696 202.356C134.618 206.038 137.57 209.071 141.254 209.092H141.253Z" fill="white"/>
<path opacity="0.72" d="M162.933 316.55L139.395 316.322C135.452 316.284 132.213 319.425 132.13 323.367L131.662 345.409C131.579 349.324 134.642 352.588 138.555 352.753L162.076 353.749C166.108 353.92 169.491 350.744 169.577 346.709L170.061 323.9C170.146 319.894 166.942 316.588 162.934 316.55H162.933Z" fill="white"/>
<path opacity="0.72" d="M123.333 344.878L123.791 323.325C123.875 319.387 120.725 316.14 116.787 316.101L93.0025 315.871C89.1279 315.834 85.9434 318.921 85.8601 322.795L85.4198 343.573C85.3382 347.42 88.3482 350.629 92.194 350.792L115.962 351.797C119.925 351.965 123.25 348.843 123.335 344.879L123.333 344.878Z" fill="white"/>
<path opacity="0.72" d="M125.397 247.58L125.772 229.888C125.863 225.616 122.419 222.105 118.146 222.113L95.433 222.155C91.2958 222.163 87.9223 225.471 87.8342 229.606L87.4756 246.514C87.3875 250.683 90.6698 254.148 94.839 254.285L117.536 255.028C121.772 255.168 125.307 251.818 125.397 247.58V247.58Z" fill="white"/>
<path opacity="0.72" d="M124.307 298.992L124.88 271.932C124.963 268.058 121.912 264.838 118.039 264.712L94.8101 263.951C90.5737 263.812 87.0385 267.161 86.9489 271.399L86.3693 298.69C86.286 302.654 89.477 305.914 93.4412 305.914L117.23 305.917C121.079 305.917 124.222 302.84 124.304 298.992H124.307Z" fill="white"/>
<path opacity="0.72" d="M187.529 209.354L212.273 209.494C215.876 209.514 218.828 206.64 218.905 203.038L219.403 179.542C219.483 175.752 216.359 172.675 212.571 172.811L187.806 173.701C184.312 173.826 181.521 176.657 181.448 180.154L180.971 202.62C180.892 206.303 183.844 209.335 187.529 209.356V209.354Z" fill="white"/>
<path opacity="0.72" d="M170.591 298.877L171.127 273.569C171.21 269.627 168.108 266.351 164.166 266.221L140.639 265.451C136.634 265.32 133.292 268.485 133.207 272.493L132.653 298.57C132.568 302.604 135.814 305.92 139.848 305.92L163.391 305.923C167.307 305.923 170.504 302.793 170.588 298.879L170.591 298.877Z" fill="white"/>
<path opacity="0.72" d="M212.917 221.942L185.895 221.992C182.929 221.996 180.509 224.369 180.447 227.334L179.931 251.671C179.869 254.662 182.223 257.145 185.212 257.243L212.214 258.126C215.253 258.226 217.787 255.826 217.851 252.785L218.388 227.517C218.453 224.454 215.984 221.937 212.92 221.942H212.917Z" fill="white"/>
<path opacity="0.72" d="M226.7 228.622L226.209 251.799C226.129 255.557 229.088 258.68 232.845 258.802L257.044 259.595C260.863 259.719 264.047 256.701 264.129 252.883L264.638 228.87C264.72 225.019 261.617 221.855 257.766 221.862L233.55 221.905C229.821 221.912 226.78 224.894 226.702 228.622H226.7Z" fill="white"/>
<path opacity="0.72" d="M138.961 255.729L165.963 256.613C169.002 256.713 171.535 254.311 171.601 251.272L172.104 227.6C172.169 224.537 169.7 222.019 166.636 222.025L139.615 222.073C136.648 222.08 134.229 224.451 134.166 227.418L133.684 250.156C133.62 253.147 135.975 255.63 138.964 255.728L138.961 255.729Z" fill="white"/>
<path opacity="0.72" d="M210.414 267.734L186.888 266.964C182.882 266.833 179.541 269.998 179.456 274.006L178.935 298.573C178.851 302.607 182.096 305.923 186.131 305.923L209.673 305.926C213.589 305.926 216.787 302.796 216.87 298.882L217.374 275.082C217.457 271.14 214.355 267.864 210.413 267.734H210.414Z" fill="white"/>
<path opacity="0.72" d="M257.478 269.276L232.304 268.452C228.758 268.335 225.798 271.138 225.724 274.688L225.199 299.421C225.123 302.993 227.997 305.93 231.571 305.931L256.762 305.935C260.23 305.935 263.063 303.163 263.136 299.695L263.644 275.783C263.717 272.293 260.97 269.392 257.48 269.278L257.478 269.276Z" fill="white"/>
<path opacity="0.72" d="M98.4381 208.53L117.219 208.635C122.214 208.664 126.308 204.679 126.414 199.684L126.742 184.19C126.841 179.509 122.983 175.706 118.303 175.874L97.4022 176.625C92.6598 176.795 88.8749 180.637 88.774 185.381L88.4986 198.321C88.3802 203.901 92.8552 208.498 98.4365 208.53H98.4381Z" fill="white"/>
<path opacity="0.72" d="M77.5072 323.421C77.5969 319.183 74.209 315.688 69.9693 315.647L61.7878 315.567C55.5708 315.506 50.4858 319.616 50.3769 324.792L50.0599 339.77C49.951 344.903 54.7783 349.205 60.9392 349.466L69.7228 349.838C73.6854 350.006 77.0109 346.884 77.0957 342.919L77.5088 323.421H77.5072Z" fill="white"/>
<path opacity="0.72" d="M340.577 318.272L324.488 318.117C320.541 318.079 317.299 321.223 317.216 325.168L316.62 353.234C316.537 357.151 319.602 360.419 323.518 360.584L339.533 361.261C345.92 361.532 351.277 357.368 351.389 352.047L351.9 327.98C352.012 322.703 346.916 318.335 340.576 318.272H340.577Z" fill="white"/>
<path opacity="0.72" d="M62.4378 305.911H70.424C74.566 305.911 77.949 302.601 78.0371 298.459L78.6199 270.951C78.7079 266.782 75.4257 263.317 71.2581 263.181L63.2191 262.918C56.882 262.71 51.6049 266.859 51.4928 272.137L50.9821 296.205C50.8684 301.525 56.0463 305.912 62.4378 305.912V305.911Z" fill="white"/>
<path opacity="0.72" d="M63.1103 253.246L73.1635 253.574C76.3673 253.679 79.0411 251.147 79.1083 247.942L79.5294 228.072C79.5982 224.841 76.9933 222.187 73.7623 222.192L63.6099 222.211C57.4537 222.222 52.4648 226.311 52.3559 231.436L52.0997 243.545C51.9893 248.722 56.895 253.043 63.1103 253.246V253.246Z" fill="white"/>
<path opacity="0.72" d="M343.147 167.8L327.013 168.379C323.378 168.509 320.476 171.455 320.399 175.091L319.811 202.812C319.73 206.642 322.8 209.798 326.632 209.819L343.245 209.913C349.441 209.948 354.491 205.845 354.601 200.688L355.093 177.499C355.209 172.017 349.724 167.563 343.147 167.8V167.8Z" fill="white"/>
<path opacity="0.72" d="M209.204 316.998L185.666 316.769C181.723 316.731 178.484 319.872 178.399 323.814L177.9 347.364C177.816 351.28 180.879 354.543 184.792 354.708L208.314 355.704C212.345 355.875 215.73 352.699 215.815 348.666L216.33 324.347C216.415 320.339 213.211 317.035 209.204 316.996V316.998Z" fill="white"/>
<path opacity="0.72" d="M342.468 221.708L326.115 221.737C322.386 221.743 319.347 224.726 319.267 228.454L318.708 254.825C318.628 258.583 321.587 261.706 325.343 261.828L341.764 262.366C348.101 262.574 353.378 258.426 353.49 253.147L353.951 231.416C354.065 226.086 348.872 221.695 342.47 221.708H342.468Z" fill="white"/>
<path opacity="0.72" d="M341.872 272.038L324.803 271.479C321.255 271.364 318.297 274.166 318.221 277.715L317.76 299.432C317.685 303.004 320.559 305.941 324.132 305.942H341.283C347.449 305.946 352.454 301.852 352.563 296.719L352.881 281.741C352.992 276.564 348.086 272.243 341.871 272.04L341.872 272.038Z" fill="white"/>
<path opacity="0.72" d="M271.973 276.201L271.479 299.426C271.404 302.998 274.278 305.936 277.852 305.936L303.043 305.939C306.511 305.939 309.343 303.168 309.417 299.7L309.893 277.296C309.966 273.806 307.219 270.905 303.728 270.791L278.555 269.966C275.008 269.849 272.048 272.653 271.973 276.203V276.201Z" fill="white"/>
<path opacity="0.72" d="M301.742 317.896L278.215 317.669C274.269 317.63 271.026 320.775 270.943 324.72L270.38 351.277C270.296 355.195 273.361 358.461 277.277 358.628L300.787 359.622C304.822 359.793 308.208 356.615 308.295 352.577L308.874 325.255C308.959 321.244 305.752 317.936 301.742 317.898V317.896Z" fill="white"/>
<path opacity="0.72" d="M64.4327 208.338L74.2777 208.394C77.4222 208.411 80 205.902 80.0672 202.758L80.4787 183.324C80.5491 180.016 77.8225 177.328 74.5147 177.448L64.0869 177.823C58.118 178.037 53.4029 182.066 53.2972 187.04L53.0506 198.632C52.9386 203.928 58.0684 208.304 64.4295 208.339L64.4327 208.338Z" fill="white"/>
<path opacity="0.72" d="M255.47 317.446L232.341 317.222C228.175 317.182 224.752 320.5 224.664 324.666L224.14 349.317C224.057 353.237 227.122 356.501 231.038 356.668L254.546 357.664C258.581 357.835 261.969 354.655 262.054 350.619L262.601 324.805C262.686 320.794 259.479 317.488 255.469 317.448L255.47 317.446Z" fill="white"/>
<path opacity="0.72" d="M274.083 176.755L273.535 202.551C273.454 206.381 276.526 209.537 280.356 209.558L304.569 209.694C308.317 209.715 311.388 206.725 311.468 202.977L312.036 176.174C312.12 172.232 308.871 169.03 304.929 169.17L280.695 170.041C277.061 170.173 274.158 173.117 274.081 176.753L274.083 176.755Z" fill="white"/>
<path opacity="0.72" d="M272.985 228.538L272.459 253.313C272.379 257.071 275.338 260.195 279.094 260.317L303.293 261.109C307.111 261.234 310.296 258.216 310.378 254.396L310.92 228.785C311.002 224.934 307.899 221.771 304.049 221.779L279.832 221.822C276.103 221.828 273.063 224.811 272.985 228.538V228.538Z" fill="white"/>
<path d="M61.7462 156.924L62.8605 165.092C63.2175 167.709 65.4238 169.676 68.064 169.732L68.4499 169.74C71.4119 169.803 73.8663 167.452 73.9288 164.489L74.1065 156.126C74.1753 152.886 71.3766 150.324 68.1553 150.68L66.4773 150.864C63.4769 151.193 61.3395 153.933 61.7478 156.924H61.7462Z" fill="white"/>
<path d="M99.6646 154.822L100.779 162.99C101.136 165.606 103.342 167.574 105.982 167.63L106.368 167.638C109.332 167.701 111.785 165.35 111.847 162.387L112.025 154.024C112.094 150.784 109.295 148.222 106.074 148.577L104.396 148.761C101.395 149.091 99.2579 151.831 99.6662 154.822H99.6646Z" fill="white"/>
<path d="M146.317 155.464L147.431 163.632C147.788 166.248 149.994 168.216 152.634 168.272L153.02 168.28C155.984 168.343 158.437 165.992 158.499 163.029L158.677 154.666C158.746 151.426 155.947 148.864 152.724 149.219L151.046 149.403C148.046 149.733 145.908 152.473 146.317 155.464Z" fill="white"/>
<path d="M191.77 153.429L192.884 161.597C193.241 164.213 195.448 166.181 198.088 166.237L198.474 166.245C201.437 166.308 203.89 163.957 203.952 160.994L204.13 152.631C204.199 149.391 201.4 146.829 198.179 147.184L196.501 147.369C193.501 147.698 191.363 150.438 191.771 153.429H191.77Z" fill="white"/>
<path d="M238.456 147.492L239.57 155.661C239.927 158.277 242.133 160.244 244.773 160.3L245.159 160.308C248.123 160.371 250.576 158.021 250.638 155.057L250.816 146.694C250.885 143.454 248.086 140.892 244.865 141.246L243.187 141.43C240.186 141.76 238.049 144.499 238.457 147.49L238.456 147.492Z" fill="white"/>
<path d="M287.911 148.541L289.026 156.709C289.383 159.325 291.589 161.293 294.229 161.349L294.615 161.357C297.579 161.42 300.031 159.069 300.094 156.106L300.272 147.743C300.34 144.503 297.542 141.941 294.32 142.295L292.642 142.479C289.642 142.809 287.505 145.548 287.913 148.539L287.911 148.541Z" fill="white"/>
<path d="M329.655 147.666L330.769 155.835C331.126 158.451 333.332 160.419 335.972 160.475L336.358 160.483C339.322 160.545 341.775 158.195 341.837 155.231L342.015 146.869C342.084 143.628 339.285 141.067 336.062 141.422L334.384 141.606C331.384 141.936 329.246 144.676 329.655 147.666Z" fill="white"/>
<path d="M258.142 144.716C258.04 142.95 256.196 142.194 254.836 143.263C251 146.285 249.441 150.979 247.55 155.358C245.347 160.459 243.235 165.602 241.358 170.832C239.381 176.348 237.695 181.961 236.411 187.663C233.865 180.853 230.907 174.22 227.154 167.926C226.158 166.255 223.343 167.233 223.902 169.217C227.147 180.754 231.14 192.056 234.198 203.653C235.277 207.744 240.873 206.778 241.289 202.846C242.428 192.107 245.02 181.835 248.702 171.692C250.452 166.87 252.406 162.124 254.431 157.412C256.224 153.24 258.416 149.351 258.146 144.716H258.142Z" fill="url(#paint4_linear_43_5795)"/>
<path d="M263.413 153.273C260.075 152.649 258.861 156.921 261.923 158.267C282.175 167.177 284.823 192.285 270.192 207.487C263.424 214.519 254.447 219.977 245.945 224.669C237.322 229.427 227.696 233.061 217.69 232.056C194.495 229.726 191.342 206.119 198.276 187.901C204.947 170.381 219.231 156.855 236.72 150.371C238.979 149.533 238.103 145.856 235.788 146.686C219.379 152.57 205.414 164.178 196.762 179.368C188.803 193.34 184.028 213.048 194.447 227.073C205.227 241.587 225.689 241.847 241.105 235.796C258.062 229.14 279.177 216.794 285.929 198.877C293.001 180.107 284.274 157.174 263.415 153.272L263.413 153.273Z" fill="url(#paint5_linear_43_5795)"/>
<path d="M402.308 378.406C401.826 378.406 401.432 378.017 401.429 377.533L400.361 223.394C400.358 222.909 400.749 222.514 401.234 222.509H401.24C401.722 222.509 402.115 222.898 402.119 223.381L403.187 377.52C403.19 378.005 402.8 378.401 402.315 378.406H402.308V378.406Z" fill="white"/>
<path d="M400.995 188.875C400.514 188.875 400.121 188.486 400.116 188.002L399.743 134.169C399.74 133.684 400.131 133.289 400.616 133.284H400.622C401.104 133.284 401.497 133.673 401.501 134.156L401.874 187.989C401.878 188.475 401.487 188.87 401.002 188.873C401 188.873 400.997 188.873 400.995 188.873V188.875Z" fill="white"/>
<path d="M77.7292 140.925C81.397 137.258 81.397 131.311 77.7292 127.643C74.0614 123.976 68.1148 123.976 64.447 127.643C60.7792 131.311 60.7792 137.258 64.447 140.925C68.1148 144.593 74.0614 144.593 77.7292 140.925Z" fill="url(#paint6_linear_43_5795)"/>
<path d="M153.528 141.195C157.736 138.162 158.689 132.293 155.656 128.085C152.624 123.877 146.754 122.924 142.546 125.956C138.338 128.989 137.385 134.859 140.417 139.067C143.45 143.275 149.32 144.228 153.528 141.195Z" fill="url(#paint7_linear_43_5795)"/>
<path d="M232.352 137.673C236.02 134.005 236.02 128.059 232.352 124.391C228.684 120.723 222.737 120.723 219.07 124.391C215.402 128.059 215.402 134.005 219.07 137.673C222.737 141.341 228.684 141.341 232.352 137.673Z" fill="url(#paint8_linear_43_5795)"/>
<path d="M311.545 130.363C313.184 125.442 310.525 120.124 305.604 118.484C300.683 116.844 295.364 119.504 293.724 124.425C292.084 129.346 294.744 134.664 299.665 136.304C304.586 137.944 309.905 135.284 311.545 130.363Z" fill="url(#paint9_linear_43_5795)"/>
<path d="M309.804 62.3433C294 65.792 295.491 107.37 296.764 124.252C297.063 128.224 300.371 131.289 304.354 131.289C305.461 131.289 306.514 130.813 307.252 129.99C307.99 129.167 308.344 128.066 308.226 126.968C306.86 114.209 303.956 77.4671 315.591 75.5025C315.591 75.5025 323.937 74.0263 325.341 90.1924H334.37C334.37 90.1924 329.674 58.0123 309.803 62.3465L309.804 62.3433Z" fill="url(#paint10_linear_43_5795)"/>
<path d="M232.853 64.4807C217.049 67.9294 218.54 109.522 219.812 126.404C220.112 130.376 223.42 133.447 227.403 133.447C228.51 133.447 229.563 132.975 230.301 132.152C231.039 131.329 231.393 130.229 231.275 129.131C229.909 116.372 227.005 79.6013 238.64 77.6368C238.64 77.6368 246.986 76.4824 248.39 92.2978H257.419C257.419 92.2978 252.723 60.1466 232.852 64.4823L232.853 64.4807Z" fill="url(#paint11_linear_43_5795)"/>
<path d="M155.904 66.6293C140.1 70.0781 141.59 111.68 142.863 128.562C143.162 132.535 146.47 135.612 150.454 135.612C151.56 135.612 152.614 135.141 153.352 134.318C154.09 133.495 154.444 132.397 154.325 131.297C152.959 118.538 150.055 81.7483 161.69 79.7838C161.69 79.7838 170.032 78.844 171.436 94.7395L180.469 94.4257C180.469 94.4257 175.773 62.2936 155.902 66.6293H155.904Z" fill="url(#paint12_linear_43_5795)"/>
<path d="M78.9529 69.1142C63.1486 72.563 64.6392 114.188 65.9121 131.07C66.2115 135.042 69.5193 138.129 73.5028 138.129C74.6091 138.129 75.6626 137.664 76.4007 136.841C77.1388 136.018 77.4927 134.923 77.3742 133.823C76.0085 121.064 73.1041 84.2316 84.7392 82.2671C84.7392 82.2671 93.0856 81.0519 94.4897 96.8657H103.518C103.518 96.8657 98.8222 64.7785 78.9513 69.1142H78.9529Z" fill="url(#paint13_linear_43_5795)"/>
<path d="M361.54 293.99C361.29 293.99 361.066 293.814 361.015 293.56C360.956 293.27 361.145 292.985 361.434 292.927C364.481 292.311 367.133 290.289 368.903 287.237C371.129 283.399 371.669 278.474 370.311 274.384C367.605 266.228 359.772 261.223 353.677 258.459C350.387 256.967 346.905 255.745 343.538 254.564C339.423 253.12 335.167 251.628 331.196 249.621C321.955 244.954 314.883 237.749 311.282 229.333C306.934 219.169 307.436 206.573 312.662 194.776C316.833 185.36 323.665 176.543 334.165 167.03C335.159 166.128 336.168 165.237 337.176 164.345C341.882 160.182 346.748 155.88 350.161 150.574C353.815 144.895 356.332 136.292 352.433 129.18C352.291 128.921 352.387 128.594 352.646 128.452C352.905 128.309 353.232 128.404 353.375 128.665C356.079 133.599 356.892 142.099 351.064 151.157C347.571 156.588 342.647 160.941 337.889 165.152C336.883 166.042 335.878 166.93 334.887 167.829C324.502 177.238 317.754 185.94 313.645 195.214C308.54 206.74 308.038 219.023 312.27 228.913C315.772 237.098 322.666 244.112 331.682 248.666C335.59 250.64 339.812 252.121 343.895 253.552C347.284 254.742 350.789 255.971 354.122 257.483C360.411 260.334 368.503 265.523 371.331 274.047C372.781 278.42 372.208 283.681 369.834 287.777C367.908 291.099 365.002 293.302 361.649 293.981C361.614 293.989 361.577 293.992 361.542 293.992L361.54 293.99Z" fill="white"/>
<path d="M376.368 53.4269C382.586 88.2039 373.804 122.883 348.695 127.373C323.585 131.864 291.658 104.464 285.439 69.6874C279.221 34.9104 301.064 5.92446 326.174 1.43504C351.283 -3.05598 370.149 18.6498 376.368 53.4269V53.4269Z" fill="url(#paint14_linear_43_5795)"/>
<path opacity="0.36" d="M306.356 25.3023C311.359 20.427 311.53 23.373 309.329 36.3129C307.126 49.2512 306.004 71.0307 300.046 68.5827C294.088 66.1346 293.108 38.2102 306.357 25.3023H306.356Z" fill="white"/>
<path opacity="0.36" d="M309.998 79.3467C310.43 81.7643 308.821 84.0731 306.404 84.5054C303.986 84.9377 301.677 83.3286 301.245 80.911C300.813 78.4933 302.422 76.1846 304.839 75.7523C307.257 75.32 309.566 76.9291 309.998 79.3467Z" fill="white"/>
<path d="M26.1236 111.138C27.8255 114.133 26.74 117.966 23.762 119.817C20.784 121.663 16.855 120.943 14.9257 118.088C12.9964 115.236 13.9794 111.208 17.1848 109.22C20.3885 107.229 24.4217 108.145 26.122 111.138H26.1236Z" fill="url(#paint15_linear_43_5795)"/>
<path d="M29.6396 88.4568C31.3752 92.1537 29.5275 96.6816 25.6001 98.7518C21.6694 100.816 16.8806 99.7813 14.8152 96.2573C12.753 92.7381 14.4566 87.9093 18.7171 85.671C22.9791 83.4278 27.9056 84.7647 29.6396 88.4568V88.4568Z" fill="url(#paint16_linear_43_5795)"/>
<path d="M10.6269 99.1553C11.9654 101.328 11.072 104.311 8.67356 105.886C6.27194 107.46 3.17706 107.098 1.71368 105.006C0.253495 102.915 1.08125 99.8165 3.60295 98.1626C6.12465 96.5071 9.28837 96.9842 10.6253 99.1553H10.6269Z" fill="url(#paint17_linear_43_5795)"/>
<path d="M61.9271 73.5524C63.3441 78.3252 60.2428 83.4599 55.0969 85.3091C49.9462 87.1488 44.288 85.1522 42.3507 80.5651C40.4166 75.986 43.3514 70.3775 49.0208 68.3489C54.6886 66.3155 60.5134 68.786 61.9271 73.5508V73.5524Z" fill="url(#paint18_linear_43_5795)"/>
<path d="M38.9148 66.2563C40.6808 70.7746 37.8069 76.1254 32.6114 78.4933C27.4127 80.8517 21.4775 79.5068 19.2344 75.2047C16.9929 70.9122 19.6699 65.0907 25.3457 62.5146C31.0199 59.9304 37.1504 61.7477 38.9148 66.2579V66.2563Z" fill="url(#paint19_linear_43_5795)"/>
<path d="M7.84899 124.174C8.97775 125.72 8.59509 127.922 7.01643 129.127C5.43776 130.331 3.20907 130.126 2.01466 128.631C0.821858 127.136 1.16609 124.877 2.8104 123.621C4.4547 122.364 6.72023 122.63 7.84899 124.175V124.174Z" fill="url(#paint20_linear_43_5795)"/>
<path d="M85.2499 46.1628C85.8215 49.5619 82.8979 52.8873 78.7607 53.7503C74.6203 54.6084 70.6192 52.7224 69.7899 49.3761C68.9589 46.0363 71.8232 42.4515 76.2214 41.5389C80.6212 40.6214 84.6815 42.7669 85.2499 46.1612V46.1628Z" fill="url(#paint21_linear_43_5795)"/>
<g opacity="0.6">
<path d="M61.4948 52.2581C62.5692 56.1983 59.5591 60.4556 54.8375 61.9798C50.1128 63.4976 45.1862 61.7989 43.7565 57.9723C42.3283 54.1522 45.2263 49.5426 50.3049 47.9095C55.3803 46.2716 60.4253 48.321 61.4948 52.2565V52.2581Z" fill="url(#paint22_linear_43_5795)"/>
</g>
<path d="M114.132 37.7971C114.348 42.7717 109.501 47.0273 103.352 47.647C97.2003 48.2538 91.6382 45.034 90.8697 40.1139C90.1011 35.205 94.8644 30.3841 101.566 29.7213C108.269 29.0504 113.917 32.8338 114.132 37.7987V37.7971Z" fill="url(#paint23_linear_43_5795)"/>
<path d="M85.6231 26.1973C86.3484 30.9941 81.8189 35.6597 75.5795 36.955C69.3385 38.239 63.3441 35.7477 62.1081 31.0566C60.8736 26.3734 65.2718 21.1571 72.0267 19.7658C78.7801 18.3664 84.9026 21.4085 85.6231 26.1973V26.1973Z" fill="url(#paint24_linear_43_5795)"/>
<path d="M141.176 16.5748C140.975 20.0155 136.95 22.5821 132.194 22.494C127.438 22.3996 123.538 19.6793 123.471 16.2338C123.402 12.7931 127.411 9.92556 132.434 10.0248C137.455 10.1209 141.376 13.1405 141.176 16.5748Z" fill="url(#paint25_linear_43_5795)"/>
<g opacity="0.6">
<path d="M113.709 17.2361C113.884 21.3188 109.516 24.822 103.986 25.3167C98.4526 25.8035 93.5597 23.1184 93.0137 19.0709C92.4661 15.0298 96.7762 11.1136 102.681 10.5932C108.583 10.0665 113.538 13.1629 113.711 17.2377L113.709 17.2361Z" fill="url(#paint26_linear_43_5795)"/>
</g>
<path d="M42.8502 39.5647C43.5867 43.4521 40.6359 47.2787 36.3034 48.3034C31.9677 49.3217 27.6272 47.2131 26.5496 43.4057C25.4737 39.6031 28.346 35.4644 33.0196 34.366C37.6899 33.2629 42.1169 35.6821 42.8502 39.5663V39.5647Z" fill="url(#paint27_linear_43_5795)"/>
<path d="M364.637 281.808C364.44 281.808 364.249 281.699 364.155 281.51C364.022 281.244 364.131 280.922 364.396 280.79C369.236 278.375 370.988 272.209 370.216 267.366C369.345 261.894 365.989 257.199 362.822 253.329C362.086 252.43 361.332 251.538 360.576 250.648C357.825 247.399 354.982 244.04 352.995 240.18C348.406 231.268 348.566 219.521 353.423 208.759C358.355 197.823 367.214 189.269 373.447 183.783C374.11 183.201 374.779 182.621 375.449 182.04C379.275 178.726 383.231 175.298 386.088 171.095C389.842 165.574 390.941 159.356 389.029 154.46C388.922 154.183 389.058 153.872 389.333 153.763C389.61 153.656 389.921 153.792 390.03 154.067C392.069 159.295 390.928 165.885 386.975 171.697C384.038 176.015 380.028 179.489 376.15 182.848C375.482 183.426 374.815 184.004 374.155 184.586C367.996 190.004 359.247 198.451 354.399 209.196C349.678 219.664 349.508 231.06 353.948 239.683C355.879 243.435 358.682 246.746 361.394 249.948C362.153 250.845 362.911 251.74 363.652 252.644C366.91 256.626 370.364 261.468 371.276 267.193C372.109 272.424 370.178 279.102 364.875 281.747C364.798 281.785 364.717 281.803 364.637 281.803V281.808Z" fill="white"/>
<path d="M435.909 111.519C426.975 141.611 406.167 165.643 384.44 159.192C362.712 152.742 348.293 118.253 357.227 88.159C366.161 58.0668 395.067 43.766 416.795 50.2151C438.521 56.6658 444.843 81.4249 435.909 111.519V111.519Z" fill="url(#paint28_linear_43_5795)"/>
<path opacity="0.36" d="M391.538 61.2609C397.455 59.3861 396.416 61.7941 389.506 71.1876C382.596 80.5827 373.017 97.4261 369.264 93.1064C365.509 88.7867 375.871 66.2243 391.538 61.2609Z" fill="white"/>
<path opacity="0.36" d="M370.972 108.007C372.89 106.967 373.602 104.57 372.563 102.652C371.523 100.734 369.126 100.022 367.208 101.062C365.29 102.101 364.578 104.499 365.618 106.417C366.657 108.334 369.055 109.046 370.972 108.007Z" fill="white"/>
<path d="M128.252 191.398L108.829 176.29C108.382 175.943 107.739 176.306 107.804 176.868L110.682 201.328L128.252 191.397V191.398Z" fill="url(#paint29_linear_43_5795)"/>
<path d="M50.1191 347.077C50.1191 347.077 46.9938 342.45 43.5803 338.166C42.2466 336.491 39.9075 336.139 38.4489 337.378C33.4919 341.587 22.9296 350.635 19.4521 354.218C18.9301 354.756 19.1575 355.718 19.8924 356.101C20.5088 356.421 21.1973 356.501 21.8153 356.327L46.6544 349.306L50.1191 347.077Z" fill="url(#paint30_linear_43_5795)"/>
<path d="M52.7977 349.01L47.7255 344.719C47.7255 344.719 43.0055 346.256 42.3667 350.078L48.7454 354.183L52.7993 349.008L52.7977 349.01Z" fill="url(#paint31_linear_43_5795)"/>
<path d="M165.217 234.422C173.132 216.662 180.604 190.119 171.899 163.591L166.855 158.547C166.855 158.547 166.854 200.097 156.516 220.73C159.406 225.299 162.296 229.87 165.216 234.421L165.217 234.422Z" fill="url(#paint32_linear_43_5795)"/>
<path d="M165.647 150.609L163.743 153.464C163.219 154.25 163.083 155.227 163.379 156.123C164.153 158.464 165.898 163.067 168.359 165.526C171.75 168.917 175.139 160.779 175.818 158.067C176.495 155.355 171.75 148.574 170.394 147.216C169.038 145.86 163.613 146.538 165.647 150.607V150.609Z" fill="url(#paint33_linear_43_5795)"/>
<path d="M139.667 430.143C139.667 430.143 138.692 435.659 138.215 441.12C138.028 443.254 139.674 445.107 141.814 445.196C149.087 445.499 164.639 446.088 170.222 445.838C171.061 445.801 171.611 444.942 171.3 444.162C171.039 443.509 170.538 442.979 169.899 442.686L144.206 430.878L139.669 430.145L139.667 430.143Z" fill="url(#paint34_linear_43_5795)"/>
<path d="M138.87 426.902L139.653 433.5C139.653 433.5 144.154 435.595 147.228 433.236L145.364 425.884L138.87 426.902Z" fill="url(#paint35_linear_43_5795)"/>
<path d="M139.458 302.859C139.12 304.582 137.642 388.842 146.65 426.601C146.797 427.218 146.485 427.852 145.897 428.092C144.515 428.656 141.808 429.474 138.563 429.583C137.557 429.616 136.656 428.963 136.372 427.997C133.798 419.236 116.109 368.543 114.5 326.612C112.702 279.758 120.906 302.854 120.906 302.854L139.458 302.857V302.859Z" fill="url(#paint36_linear_43_5795)"/>
<path d="M100.54 304.365C92.9864 323.413 90.5176 326.391 87.1473 348.137C83.1062 374.214 63.3761 356.207 52.841 347.74C51.5089 346.671 47.5526 350.504 47.1668 355.891C46.664 362.917 89.2271 396.269 100.742 372.69C108.096 357.63 110.134 340.681 115.016 331.304C115.626 330.133 116.62 329.213 117.832 328.694L132.856 322.257L137.096 307.512L100.54 304.364V304.365Z" fill="url(#paint37_linear_43_5795)"/>
<path d="M92.3188 236.713C84.4047 218.953 76.9325 192.41 85.6375 165.882L90.6809 160.838C90.6809 160.838 90.6825 202.388 101.021 223.021C98.1307 227.591 95.2408 232.162 92.3204 236.712L92.3188 236.713Z" fill="url(#paint38_linear_43_5795)"/>
<path d="M139.471 230.359H114.614C112.118 230.359 109.719 229.401 107.912 227.68C105.595 225.476 102.615 221.739 100.503 215.858C100.183 214.966 99.2258 214.474 98.3164 214.745C95.1175 215.693 88.1191 218.407 84.4495 224.726C84.1052 225.317 84.1116 226.05 84.4815 226.625L99.9863 250.619L98.4589 309.807C98.4589 309.807 137.42 315.919 142.767 309.807L148.115 255.568C148.115 255.568 167.212 244.109 172.56 225.775L156.517 216.607C156.517 216.607 154.649 216.684 153.054 220.98C150.953 226.638 145.505 230.357 139.471 230.357V230.359Z" fill="url(#paint39_linear_43_5795)"/>
<path d="M118.187 212.276L117.614 231.46C117.577 232.688 118.346 233.798 119.511 234.184C121.9 234.975 126.223 235.955 131.06 234.911C132.502 234.598 133.423 233.175 133.17 231.721L130.543 216.609L118.187 212.276V212.276Z" fill="url(#paint40_linear_43_5795)"/>
<path d="M131.336 194.711C131.508 194.927 137.308 210.709 139.86 217.662C140.505 219.423 139.546 221.361 137.756 221.921L132.147 222.944C128.43 223.623 124.736 221.641 123.245 218.167L116.49 210.297C112.819 206.019 114.081 199.404 119.102 196.843C124.047 194.322 129.472 192.375 131.336 194.711Z" fill="url(#paint41_linear_43_5795)"/>
<path d="M120.173 212.062L121.779 211.26C121.779 211.26 115.357 200.824 122.581 200.022C129.805 199.219 136.227 197.614 136.227 193.6C136.227 189.586 136.227 182.362 127.397 185.572C118.567 188.782 119.369 194.402 114.553 195.206C109.737 196.008 105.723 196.811 107.329 201.627C108.935 206.443 112.145 209.655 110.539 211.26C108.933 212.864 116.159 220.892 120.171 212.062H120.173Z" fill="url(#paint42_linear_43_5795)"/>
<path d="M121.886 215.189C121.886 215.189 120.551 208.131 117.573 207.957C114.595 207.782 111.857 210.382 115.032 214.201C118.982 218.951 121.886 215.189 121.886 215.189Z" fill="url(#paint43_linear_43_5795)"/>
<path d="M91.8895 152.9L93.7932 155.755C94.3168 156.541 94.4529 157.518 94.1567 158.414C93.3834 160.755 91.6382 165.358 89.1773 167.817C85.7862 171.209 82.3968 163.07 81.7179 160.358C81.039 157.646 85.7862 150.865 87.1423 149.508C88.4985 148.151 93.9229 148.829 91.8895 152.899V152.9Z" fill="url(#paint44_linear_43_5795)"/>
<path d="M345.161 197.931C345.161 197.931 350.71 200.63 351.73 203.731C352.548 206.219 358.685 206.54 359.292 211.432C359.604 213.959 361.475 215.983 363.991 216.369C370.258 217.329 379.917 220.584 381.462 231.465C382.642 239.77 378.407 242.919 373.964 244.01C370.701 244.81 368.532 247.985 369.192 251.28C369.824 254.441 368.881 258.094 363.405 260.983C351.136 267.456 338.883 245.646 338.883 245.646L336.373 207.563L345.161 197.932V197.931Z" fill="url(#paint45_linear_43_5795)"/>
<path d="M278.401 188.902C278.401 188.902 302.897 227.65 332.027 235.133C332.027 235.133 326.352 251.299 321.971 253.15C321.971 253.15 286.132 223.248 276.923 194.408L278.401 188.902V188.902Z" fill="url(#paint46_linear_43_5795)"/>
<path d="M395.592 436.73L396.386 443.257C396.536 444.495 397.512 445.475 398.751 445.616C400.843 445.854 404.201 446.099 407.486 445.752C408.929 445.6 409.864 444.14 409.425 442.758C408.625 440.238 407.16 436.456 405.046 434.23H397.806C396.468 434.23 395.43 435.401 395.592 436.73V436.73Z" fill="url(#paint47_linear_43_5795)"/>
<path d="M338.883 360.272L337.662 367.461C337.662 367.461 341.754 408.914 342.483 425.495C342.596 428.095 341.924 430.663 340.56 432.879L333.443 444.434L351.529 433.763L351.889 431.557L348.928 427.487L352.806 381.049C353.034 378.321 352.472 375.585 351.184 373.169L347.444 366.141L338.885 360.273L338.883 360.272Z" fill="url(#paint48_linear_43_5795)"/>
<path d="M332.252 446.107H338.023C339.104 446.107 340.122 445.611 340.782 444.756C342.582 442.418 346.309 437.857 348.091 437.738C350.491 437.578 350.184 446.109 350.184 446.109H351.529L353.232 435.508C353.661 432.841 352.334 430.199 349.94 428.95C349.94 428.95 349.391 433.007 346.418 434.8C343.443 436.595 334.315 443.02 334.315 443.02C334.315 443.02 333.198 442.86 331.97 443.083C330.149 443.413 330.404 446.109 332.253 446.109L332.252 446.107Z" fill="url(#paint49_linear_43_5795)"/>
<path d="M363.654 363.685C363.654 363.685 387.628 409.162 391.439 419.545C395.249 429.928 396.585 438.59 396.636 439.412C396.716 440.694 398.31 441.922 402.704 441.922C404.971 441.922 406.082 441.013 406.626 440.134C407.091 439.383 407.115 438.443 406.724 437.652C405.338 434.845 400.936 425.876 399.306 421.808C397.361 416.95 393.174 394.94 390.878 387.287C388.582 379.634 385.987 371.332 375.99 363.685C375.99 363.685 369.128 356.964 363.654 363.685V363.685Z" fill="url(#paint50_linear_43_5795)"/>
<path d="M348.509 289.168C342.324 262.963 357.992 248.14 357.992 248.14C348.107 238.651 330.095 234.334 330.095 234.334C330.095 234.334 312.909 246.9 314.947 256.733C316.142 262.497 327.027 291.261 327.027 291.261C327.027 291.261 337.093 296.024 348.509 289.168Z" fill="url(#paint51_linear_43_5795)"/>
<path d="M362.221 302.142C359.704 294.559 348.509 289.168 348.509 289.168C337.093 296.024 327.027 291.261 327.027 291.261C327.027 291.261 324.77 299.889 326.328 307.907C327.886 315.925 337.66 367.459 337.66 367.459C353.062 370.58 376.75 364.319 376.75 364.319C366.939 346.901 364.736 309.724 362.219 302.142H362.221Z" fill="url(#paint52_linear_43_5795)"/>
<path d="M341.331 217.017L346.359 239.602C346.841 241.59 345.027 241.265 343.016 240.886C339.722 240.265 335.476 238.985 334.058 236.424C333.914 236.163 333.842 235.868 333.8 235.572L331.64 219.912C331.469 218.669 332.14 217.464 333.288 216.955L337.455 215.107C339.059 214.396 340.918 215.31 341.331 217.017V217.017Z" fill="url(#paint53_linear_43_5795)"/>
<path d="M331.699 196.429C331.699 196.429 326.347 200.052 324.046 209.281C321.745 218.508 325.484 221.819 329.315 221.615C333.147 221.412 338.702 220.227 343.515 213.608C348.328 206.988 338.712 192.002 331.698 196.43L331.699 196.429Z" fill="url(#paint54_linear_43_5795)"/>
<path d="M338.662 209.884C338.662 209.884 340.624 196.662 329.645 198.685L327.426 200.995C327.426 200.995 322.053 194.943 327.999 190.369C333.945 185.794 342.197 186.966 346.762 195.294C351.327 203.621 352.984 209.473 349.157 214.647C345.331 219.822 342.452 215.384 342.452 215.384C342.452 215.384 344.207 210.906 342.751 208.983C341.294 207.061 339.416 210.1 339.416 210.1L338.661 209.883L338.662 209.884Z" fill="url(#paint55_linear_43_5795)"/>
<path d="M339.026 211.866C339.026 211.866 339.994 205.063 343.469 207.009C346.943 208.954 342.217 213.363 340.321 214.864L339.026 211.866Z" fill="url(#paint56_linear_43_5795)"/>
<path d="M278.569 196.879C278.495 197.678 281.467 198.23 282.413 194.823C282.154 193.343 281.691 186.866 280.558 185.858C274.517 180.498 263.745 174.468 263.745 174.468C262.541 176.308 264.119 177.52 264.119 177.52L269.497 181.15C268.937 183.007 268.117 184.65 268.024 186.771C267.954 188.377 268.548 189.951 269.614 191.168C270.684 192.391 272.125 193.969 273.423 195.169C275.881 197.437 278.569 196.879 278.569 196.879Z" fill="url(#paint57_linear_43_5795)"/>
<path d="M275.676 194.226L276.445 193.91C276.336 193.644 273.756 187.379 272.512 186.078C272.032 185.577 271.801 185.144 271.822 184.795C271.835 184.598 271.933 184.405 272.122 184.208L276.501 186.548L278.427 189.565L279.126 189.118L277.083 185.919L272.011 183.207L271.797 183.382C271.287 183.796 271.025 184.243 270.994 184.744C270.958 185.343 271.257 185.967 271.913 186.653C272.857 187.639 274.951 192.455 275.678 194.226H275.676Z" fill="url(#paint58_linear_43_5795)"/>
<path d="M357.992 248.14C357.992 248.14 385.827 305.291 395.907 310.288C395.907 310.288 406.143 311.357 412.406 313.251C413.982 313.729 413.929 315.965 412.341 316.399C407.979 317.589 400.752 318.583 394.128 314.987C394.128 314.987 397.686 320.32 395.611 322.397C395.611 322.397 390.867 316.766 389.088 314.987C387.522 313.421 359.017 282.344 347.033 263.602C346.064 262.087 346.737 257.588 347.409 255.92C348.957 252.084 352.392 245.96 357.991 248.139L357.992 248.14Z" fill="url(#paint59_linear_43_5795)"/>
<defs>
<linearGradient id="paint0_linear_43_5795" x1="495.493" y1="479.427" x2="158.618" y2="177.23" gradientUnits="userSpaceOnUse">
<stop stop-color="#B37CFF"/>
<stop offset="1" stop-color="#F895E7"/>
</linearGradient>
<linearGradient id="paint1_linear_43_5795" x1="408.498" y1="72.8143" x2="401.455" y2="335.002" gradientUnits="userSpaceOnUse">
<stop stop-color="#2B3582"/>
<stop offset="1" stop-color="#150E42"/>
</linearGradient>
<linearGradient id="paint2_linear_43_5795" x1="132.293" y1="355.781" x2="453.469" y2="-94.2966" gradientUnits="userSpaceOnUse">
<stop stop-color="#2B3582"/>
<stop offset="1" stop-color="#150E42"/>
</linearGradient>
<linearGradient id="paint3_linear_43_5795" x1="468.433" y1="431.173" x2="63.4752" y2="144.026" gradientUnits="userSpaceOnUse">
<stop stop-color="#A737D5"/>
<stop offset="1" stop-color="#EF497A"/>
</linearGradient>
<linearGradient id="paint4_linear_43_5795" x1="174.182" y1="237.607" x2="269.403" y2="153.614" gradientUnits="userSpaceOnUse">
<stop stop-color="#A737D5"/>
<stop offset="1" stop-color="#EF497A"/>
</linearGradient>
<linearGradient id="paint5_linear_43_5795" x1="179.872" y1="244.058" x2="275.091" y2="160.065" gradientUnits="userSpaceOnUse">
<stop stop-color="#A737D5"/>
<stop offset="1" stop-color="#EF497A"/>
</linearGradient>
<linearGradient id="paint6_linear_43_5795" x1="83.7765" y1="109.667" x2="61.1324" y2="153.598" gradientUnits="userSpaceOnUse">
<stop stop-color="#A737D5"/>
<stop offset="1" stop-color="#EF497A"/>
</linearGradient>
<linearGradient id="paint7_linear_43_5795" x1="160.736" y1="108.949" x2="138.092" y2="152.877" gradientUnits="userSpaceOnUse">
<stop stop-color="#A737D5"/>
<stop offset="1" stop-color="#EF497A"/>
</linearGradient>
<linearGradient id="paint8_linear_43_5795" x1="238.399" y1="106.415" x2="215.755" y2="150.345" gradientUnits="userSpaceOnUse">
<stop stop-color="#A737D5"/>
<stop offset="1" stop-color="#EF497A"/>
</linearGradient>
<linearGradient id="paint9_linear_43_5795" x1="315.307" y1="102.81" x2="292.663" y2="146.739" gradientUnits="userSpaceOnUse">
<stop stop-color="#A737D5"/>
<stop offset="1" stop-color="#EF497A"/>
</linearGradient>
<linearGradient id="paint10_linear_43_5795" x1="355.507" y1="7.13649" x2="273.305" y2="166.61" gradientUnits="userSpaceOnUse">
<stop stop-color="#FDF53F"/>
<stop offset="1" stop-color="#D93C65"/>
</linearGradient>
<linearGradient id="paint11_linear_43_5795" x1="278.562" y1="9.2515" x2="196.334" y2="168.773" gradientUnits="userSpaceOnUse">
<stop stop-color="#FDF53F"/>
<stop offset="1" stop-color="#D93C65"/>
</linearGradient>
<linearGradient id="paint12_linear_43_5795" x1="201.616" y1="11.3857" x2="119.372" y2="170.938" gradientUnits="userSpaceOnUse">
<stop stop-color="#FDF53F"/>
<stop offset="1" stop-color="#D93C65"/>
</linearGradient>
<linearGradient id="paint13_linear_43_5795" x1="124.673" y1="13.8338" x2="42.3906" y2="173.461" gradientUnits="userSpaceOnUse">
<stop stop-color="#FDF53F"/>
<stop offset="1" stop-color="#D93C65"/>
</linearGradient>
<linearGradient id="paint14_linear_43_5795" x1="353.625" y1="-21.1507" x2="273.155" y2="301.333" gradientUnits="userSpaceOnUse">
<stop stop-color="#A737D5"/>
<stop offset="1" stop-color="#EF497A"/>
</linearGradient>
<linearGradient id="paint15_linear_43_5795" x1="32.6056" y1="119.024" x2="-4.68948" y2="105.044" gradientUnits="userSpaceOnUse">
<stop stop-color="#FDF53F"/>
<stop offset="1" stop-color="#D93C65"/>
</linearGradient>
<linearGradient id="paint16_linear_43_5795" x1="16.5501" y1="76.3294" x2="32.3682" y2="121.332" gradientUnits="userSpaceOnUse">
<stop stop-color="#CB236D"/>
<stop offset="1" stop-color="#4C246D"/>
</linearGradient>
<linearGradient id="paint17_linear_43_5795" x1="2.61103" y1="92.0264" x2="12.5618" y2="120.339" gradientUnits="userSpaceOnUse">
<stop stop-color="#CB236D"/>
<stop offset="1" stop-color="#4C246D"/>
</linearGradient>
<linearGradient id="paint18_linear_43_5795" x1="45.2702" y1="57.5333" x2="64.4883" y2="112.208" gradientUnits="userSpaceOnUse">
<stop stop-color="#CB236D"/>
<stop offset="1" stop-color="#4C246D"/>
</linearGradient>
<linearGradient id="paint19_linear_43_5795" x1="29.2967" y1="82.555" x2="28.1165" y2="42.9067" gradientUnits="userSpaceOnUse">
<stop stop-color="#FDF53F"/>
<stop offset="1" stop-color="#D93C65"/>
</linearGradient>
<linearGradient id="paint20_linear_43_5795" x1="2.27567" y1="118.899" x2="9.71162" y2="140.056" gradientUnits="userSpaceOnUse">
<stop stop-color="#FDF53F"/>
<stop offset="1" stop-color="#D93C65"/>
</linearGradient>
<linearGradient id="paint21_linear_43_5795" x1="91.7124" y1="52.9603" x2="48.0217" y2="36.5817" gradientUnits="userSpaceOnUse">
<stop stop-color="#FDF53F"/>
<stop offset="1" stop-color="#D93C65"/>
</linearGradient>
<linearGradient id="paint22_linear_43_5795" x1="47.0035" y1="39.1073" x2="62.7762" y2="83.9779" gradientUnits="userSpaceOnUse">
<stop stop-color="#A737D5"/>
<stop offset="1" stop-color="#EF497A"/>
</linearGradient>
<linearGradient id="paint23_linear_43_5795" x1="95.5727" y1="19.0029" x2="115.157" y2="74.7254" gradientUnits="userSpaceOnUse">
<stop stop-color="#FDF53F"/>
<stop offset="1" stop-color="#D93C65"/>
</linearGradient>
<linearGradient id="paint24_linear_43_5795" x1="74.1454" y1="40.1382" x2="72.9948" y2="1.44008" gradientUnits="userSpaceOnUse">
<stop stop-color="#FDF53F"/>
<stop offset="1" stop-color="#D93C65"/>
</linearGradient>
<linearGradient id="paint25_linear_43_5795" x1="148.732" y1="22.4121" x2="98.3376" y2="3.52142" gradientUnits="userSpaceOnUse">
<stop stop-color="#FDF53F"/>
<stop offset="1" stop-color="#D93C65"/>
</linearGradient>
<linearGradient id="paint26_linear_43_5795" x1="97.6118" y1="1.64903" x2="113.846" y2="47.8379" gradientUnits="userSpaceOnUse">
<stop stop-color="#A737D5"/>
<stop offset="1" stop-color="#EF497A"/>
</linearGradient>
<linearGradient id="paint27_linear_43_5795" x1="29.2698" y1="25.9534" x2="44.5784" y2="69.5083" gradientUnits="userSpaceOnUse">
<stop stop-color="#CB236D"/>
<stop offset="1" stop-color="#4C246D"/>
</linearGradient>
<linearGradient id="paint28_linear_43_5795" x1="447.602" y1="43.2979" x2="255.043" y2="267.242" gradientUnits="userSpaceOnUse">
<stop stop-color="#53D8FF"/>
<stop offset="1" stop-color="#3840F7"/>
</linearGradient>
<linearGradient id="paint29_linear_43_5795" x1="120.791" y1="205.414" x2="113.64" y2="156.556" gradientUnits="userSpaceOnUse">
<stop stop-color="#CB236D"/>
<stop offset="1" stop-color="#4C246D"/>
</linearGradient>
<linearGradient id="paint30_linear_43_5795" x1="35.6338" y1="371.041" x2="42.3479" y2="239.86" gradientUnits="userSpaceOnUse">
<stop stop-color="#2B3582"/>
<stop offset="1" stop-color="#150E42"/>
</linearGradient>
<linearGradient id="paint31_linear_43_5795" x1="50.5845" y1="346.679" x2="44.4731" y2="352.38" gradientUnits="userSpaceOnUse">
<stop stop-color="#C4421B"/>
<stop offset="1" stop-color="#5C0E16"/>
</linearGradient>
<linearGradient id="paint32_linear_43_5795" x1="171.289" y1="155.508" x2="161.344" y2="255.244" gradientUnits="userSpaceOnUse">
<stop stop-color="#C4421B"/>
<stop offset="1" stop-color="#5C0E16"/>
</linearGradient>
<linearGradient id="paint33_linear_43_5795" x1="169.652" y1="155.345" x2="159.708" y2="255.081" gradientUnits="userSpaceOnUse">
<stop stop-color="#C4421B"/>
<stop offset="1" stop-color="#5C0E16"/>
</linearGradient>
<linearGradient id="paint34_linear_43_5795" x1="169.409" y1="422.52" x2="75.3232" y2="524.86" gradientUnits="userSpaceOnUse">
<stop stop-color="#2B3582"/>
<stop offset="1" stop-color="#150E42"/>
</linearGradient>
<linearGradient id="paint35_linear_43_5795" x1="138.87" y1="430.121" x2="147.228" y2="430.121" gradientUnits="userSpaceOnUse">
<stop stop-color="#C4421B"/>
<stop offset="1" stop-color="#5C0E16"/>
</linearGradient>
<linearGradient id="paint36_linear_43_5795" x1="571.182" y1="780.537" x2="507.805" y2="719.847" gradientUnits="userSpaceOnUse">
<stop stop-color="#2B3582"/>
<stop offset="1" stop-color="#150E42"/>
</linearGradient>
<linearGradient id="paint37_linear_43_5795" x1="565.564" y1="786.405" x2="502.188" y2="725.715" gradientUnits="userSpaceOnUse">
<stop stop-color="#2B3582"/>
<stop offset="1" stop-color="#150E42"/>
</linearGradient>
<linearGradient id="paint38_linear_43_5795" x1="86.2475" y1="157.8" x2="96.1918" y2="257.536" gradientUnits="userSpaceOnUse">
<stop stop-color="#C4421B"/>
<stop offset="1" stop-color="#5C0E16"/>
</linearGradient>
<linearGradient id="paint39_linear_43_5795" x1="140.303" y1="232.911" x2="57.4873" y2="339.085" gradientUnits="userSpaceOnUse">
<stop stop-color="#FDF53F"/>
<stop offset="1" stop-color="#D93C65"/>
</linearGradient>
<linearGradient id="paint40_linear_43_5795" x1="133.213" y1="223.818" x2="117.614" y2="223.818" gradientUnits="userSpaceOnUse">
<stop stop-color="#C4421B"/>
<stop offset="1" stop-color="#5C0E16"/>
</linearGradient>
<linearGradient id="paint41_linear_43_5795" x1="126.869" y1="198.565" x2="128.103" y2="246.208" gradientUnits="userSpaceOnUse">
<stop stop-color="#C4421B"/>
<stop offset="1" stop-color="#5C0E16"/>
</linearGradient>
<linearGradient id="paint42_linear_43_5795" x1="127.845" y1="188.407" x2="92.2276" y2="235.527" gradientUnits="userSpaceOnUse">
<stop stop-color="#2B3582"/>
<stop offset="1" stop-color="#150E42"/>
</linearGradient>
<linearGradient id="paint43_linear_43_5795" x1="114.803" y1="242.557" x2="117.882" y2="211.678" gradientUnits="userSpaceOnUse">
<stop stop-color="#C4421B"/>
<stop offset="1" stop-color="#5C0E16"/>
</linearGradient>
<linearGradient id="paint44_linear_43_5795" x1="87.8836" y1="157.636" x2="97.8279" y2="257.372" gradientUnits="userSpaceOnUse">
<stop stop-color="#C4421B"/>
<stop offset="1" stop-color="#5C0E16"/>
</linearGradient>
<linearGradient id="paint45_linear_43_5795" x1="384.444" y1="260.907" x2="336.642" y2="214.718" gradientUnits="userSpaceOnUse">
<stop stop-color="#CB236D"/>
<stop offset="1" stop-color="#4C246D"/>
</linearGradient>
<linearGradient id="paint46_linear_43_5795" x1="330.963" y1="247.63" x2="247.984" y2="174.854" gradientUnits="userSpaceOnUse">
<stop stop-color="#F9B776"/>
<stop offset="1" stop-color="#F47960"/>
</linearGradient>
<linearGradient id="paint47_linear_43_5795" x1="395.576" y1="440.076" x2="409.534" y2="440.076" gradientUnits="userSpaceOnUse">
<stop stop-color="#A737D5"/>
<stop offset="1" stop-color="#EF497A"/>
</linearGradient>
<linearGradient id="paint48_linear_43_5795" x1="336.594" y1="495.121" x2="356.681" y2="260.352" gradientUnits="userSpaceOnUse">
<stop stop-color="#F9B776"/>
<stop offset="1" stop-color="#F47960"/>
</linearGradient>
<linearGradient id="paint49_linear_43_5795" x1="330.726" y1="437.529" x2="353.312" y2="437.529" gradientUnits="userSpaceOnUse">
<stop stop-color="#A737D5"/>
<stop offset="1" stop-color="#EF497A"/>
</linearGradient>
<linearGradient id="paint50_linear_43_5795" x1="377" y1="498.615" x2="397.094" y2="263.783" gradientUnits="userSpaceOnUse">
<stop stop-color="#F9B776"/>
<stop offset="1" stop-color="#F47960"/>
</linearGradient>
<linearGradient id="paint51_linear_43_5795" x1="337.09" y1="258.371" x2="347.134" y2="351.559" gradientUnits="userSpaceOnUse">
<stop stop-color="#FDF53F"/>
<stop offset="1" stop-color="#D93C65"/>
</linearGradient>
<linearGradient id="paint52_linear_43_5795" x1="392.417" y1="262.946" x2="342.198" y2="343.299" gradientUnits="userSpaceOnUse">
<stop stop-color="#FDF53F"/>
<stop offset="1" stop-color="#D93C65"/>
</linearGradient>
<linearGradient id="paint53_linear_43_5795" x1="334.391" y1="263.709" x2="338.164" y2="236.105" gradientUnits="userSpaceOnUse">
<stop stop-color="#F9B776"/>
<stop offset="1" stop-color="#F47960"/>
</linearGradient>
<linearGradient id="paint54_linear_43_5795" x1="327.665" y1="230.508" x2="348.58" y2="166.636" gradientUnits="userSpaceOnUse">
<stop stop-color="#F9B776"/>
<stop offset="1" stop-color="#F47960"/>
</linearGradient>
<linearGradient id="paint55_linear_43_5795" x1="393.222" y1="251.821" x2="345.422" y2="205.632" gradientUnits="userSpaceOnUse">
<stop stop-color="#CB236D"/>
<stop offset="1" stop-color="#4C246D"/>
</linearGradient>
<linearGradient id="paint56_linear_43_5795" x1="334.165" y1="233.86" x2="355.082" y2="169.987" gradientUnits="userSpaceOnUse">
<stop stop-color="#F9B776"/>
<stop offset="1" stop-color="#F47960"/>
</linearGradient>
<linearGradient id="paint57_linear_43_5795" x1="335.811" y1="242.101" x2="252.832" y2="169.326" gradientUnits="userSpaceOnUse">
<stop stop-color="#F9B776"/>
<stop offset="1" stop-color="#F47960"/>
</linearGradient>
<linearGradient id="paint58_linear_43_5795" x1="278.566" y1="183.795" x2="309.986" y2="149.69" gradientUnits="userSpaceOnUse">
<stop stop-color="#F9B776"/>
<stop offset="1" stop-color="#F47960"/>
</linearGradient>
<linearGradient id="paint59_linear_43_5795" x1="413.561" y1="285.042" x2="346.549" y2="285.042" gradientUnits="userSpaceOnUse">
<stop stop-color="#F9B776"/>
<stop offset="1" stop-color="#F47960"/>
</linearGradient>
</defs>
</svg>
