<svg width="75" height="53" viewBox="0 0 75 53" fill="none" xmlns="http://www.w3.org/2000/svg">
<path d="M3.304 49.0845L0.14 38.6965H2.646L4.83 46.4665L7.014 38.6965H9.492L6.328 49.0845H3.304ZM10.4783 49.0845V38.6965H12.9003V49.0845H10.4783ZM13.8666 49.0845L17.0306 38.6965H20.0546L23.2186 49.0845H20.7126L20.1806 47.1945H16.8766L16.3586 49.0845H13.8666ZM17.4366 45.0245H19.6206L18.5286 40.7685L17.4366 45.0245ZM30.6576 49.1545C30.0136 49.1545 29.4863 49.0238 29.0756 48.7625C28.6649 48.5012 28.3429 48.1372 28.1096 47.6705C27.8856 47.1945 27.7269 46.6392 27.6336 46.0045C27.5403 45.3605 27.4936 44.6605 27.4936 43.9045C27.4936 43.0925 27.5449 42.3598 27.6476 41.7065C27.7596 41.0532 27.9556 40.4978 28.2356 40.0405C28.5156 39.5738 28.9123 39.2192 29.4256 38.9765C29.9483 38.7245 30.6203 38.5985 31.4416 38.5985C31.9549 38.5985 32.4076 38.6218 32.7996 38.6685C33.2009 38.7058 33.5743 38.7618 33.9196 38.8365C34.2743 38.9112 34.6336 38.9952 34.9976 39.0885V40.9645C34.7923 40.9365 34.5309 40.9085 34.2136 40.8805C33.8963 40.8525 33.5369 40.8292 33.1356 40.8105C32.7436 40.7825 32.3283 40.7685 31.8896 40.7685C31.3296 40.7685 30.9049 40.8618 30.6156 41.0485C30.3356 41.2352 30.1489 41.5572 30.0556 42.0145C29.9623 42.4718 29.9156 43.1018 29.9156 43.9045C29.9156 44.5298 29.9389 45.0385 29.9856 45.4305C30.0416 45.8225 30.1303 46.1305 30.2516 46.3545C30.3729 46.5692 30.5316 46.7185 30.7276 46.8025C30.9329 46.8865 31.1756 46.9285 31.4556 46.9285C31.8196 46.9285 32.1509 46.9052 32.4496 46.8585C32.7576 46.8118 33.0003 46.7652 33.1776 46.7185V45.0665H31.5396V43.1485C31.7449 43.1205 31.9829 43.0972 32.2536 43.0785C32.5336 43.0598 32.8229 43.0458 33.1216 43.0365C33.4296 43.0178 33.7096 43.0085 33.9616 43.0085C34.2883 43.0085 34.5729 43.0132 34.8156 43.0225C35.0676 43.0225 35.2963 43.0318 35.5016 43.0505V49.0845H33.6816L33.3596 48.3845C33.1076 48.5432 32.7389 48.7112 32.2536 48.8885C31.7776 49.0658 31.2456 49.1545 30.6576 49.1545ZM36.4662 49.0845L39.6302 38.6965H42.6542L45.8182 49.0845H43.3122L42.7802 47.1945H39.4762L38.9582 49.0845H36.4662ZM40.0362 45.0245H42.2202L41.1282 40.7685L40.0362 45.0245ZM46.5245 49.0845L47.7425 38.6965H50.0385L52.2925 46.2985L54.5325 38.6965H56.8005L58.0325 49.0845H55.7085L54.8545 41.9585L55.2185 41.9725L53.3985 49.0845H51.1305L49.2965 41.9725L49.6885 41.9585L48.8625 49.0845H46.5245ZM61.7825 49.1685C61.5585 49.1685 61.2925 49.1452 60.9845 49.0985C60.6859 49.0518 60.3965 48.9538 60.1165 48.8045C59.8365 48.6458 59.6032 48.4078 59.4165 48.0905C59.2299 47.7638 59.1365 47.3252 59.1365 46.7745V41.1885C59.1365 40.7032 59.2112 40.2972 59.3605 39.9705C59.5192 39.6438 59.7152 39.3918 59.9485 39.2145C60.1912 39.0278 60.4619 38.8972 60.7605 38.8225C61.0592 38.7385 61.3485 38.6965 61.6285 38.6965C62.3752 38.6965 63.0239 38.7105 63.5745 38.7385C64.1252 38.7572 64.6105 38.7805 65.0305 38.8085C65.4505 38.8365 65.8285 38.8645 66.1645 38.8925V40.9365H62.3565C62.1045 40.9365 61.9085 40.9972 61.7685 41.1185C61.6285 41.2305 61.5585 41.4125 61.5585 41.6645V42.8125L65.4785 42.9525V44.8565L61.5585 44.9825V46.0745C61.5585 46.2798 61.5912 46.4432 61.6565 46.5645C61.7219 46.6765 61.8105 46.7605 61.9225 46.8165C62.0345 46.8725 62.1559 46.9005 62.2865 46.9005H66.1645V48.9305C65.7539 48.9772 65.2965 49.0192 64.7925 49.0565C64.2885 49.0938 63.7752 49.1172 63.2525 49.1265C62.7392 49.1452 62.2492 49.1592 61.7825 49.1685ZM70.7508 49.1685C70.4614 49.1685 70.1674 49.1592 69.8688 49.1405C69.5794 49.1218 69.2901 49.0985 69.0008 49.0705C68.7208 49.0332 68.4454 48.9912 68.1748 48.9445C67.9134 48.8978 67.6708 48.8465 67.4468 48.7905V46.8725C67.7454 46.9005 68.0768 46.9238 68.4408 46.9425C68.8048 46.9612 69.1734 46.9752 69.5468 46.9845C69.9294 46.9938 70.2888 46.9985 70.6248 46.9985C70.9514 46.9985 71.2268 46.9752 71.4508 46.9285C71.6841 46.8725 71.8614 46.7838 71.9828 46.6625C72.1041 46.5318 72.1648 46.3545 72.1648 46.1305V45.8645C72.1648 45.6125 72.0808 45.4212 71.9128 45.2905C71.7541 45.1598 71.5488 45.0945 71.2968 45.0945H70.4848C69.4394 45.0945 68.6461 44.8658 68.1048 44.4085C67.5634 43.9512 67.2928 43.1812 67.2928 42.0985V41.6085C67.2928 40.5912 67.5914 39.8398 68.1888 39.3545C68.7861 38.8598 69.6448 38.6125 70.7648 38.6125C71.1754 38.6125 71.5721 38.6358 71.9548 38.6825C72.3374 38.7198 72.7014 38.7665 73.0468 38.8225C73.3921 38.8785 73.6954 38.9392 73.9568 39.0045V40.9085C73.5274 40.8805 73.0468 40.8525 72.5148 40.8245C71.9828 40.7965 71.4974 40.7825 71.0588 40.7825C70.7694 40.7825 70.5128 40.8105 70.2888 40.8665C70.0648 40.9132 69.8921 41.0065 69.7708 41.1465C69.6494 41.2772 69.5888 41.4732 69.5888 41.7345V41.9305C69.5888 42.2292 69.6728 42.4485 69.8408 42.5885C70.0181 42.7285 70.2841 42.7985 70.6388 42.7985H71.6048C72.2488 42.7985 72.7808 42.9198 73.2008 43.1625C73.6208 43.3958 73.9334 43.7225 74.1388 44.1425C74.3534 44.5532 74.4608 45.0198 74.4608 45.5425V46.0605C74.4608 46.9192 74.3068 47.5725 73.9988 48.0205C73.7001 48.4685 73.2708 48.7718 72.7108 48.9305C72.1601 49.0892 71.5068 49.1685 70.7508 49.1685Z" fill="black"/>
<g clip-path="url(#clip0_78_4567)">
<path d="M27.4436 25.6025C25.7655 25.5979 24.0575 25.7968 22.4151 25.5505C18.0933 24.903 16.6362 21.7855 18.8195 17.973C19.5584 16.6837 20.5598 15.5458 21.4414 14.3386C21.492 14.5502 21.5726 14.7595 21.5899 14.9746C21.9259 19.1074 23.6144 22.5348 26.844 25.1574C26.9683 25.2591 27.1305 25.3146 27.2744 25.3921C27.2767 25.2314 27.3043 25.066 27.2779 24.9087C26.9061 22.6701 26.8405 20.4198 27.3412 18.2077C29.3116 9.50628 34.7694 4.44266 43.4476 2.79488C43.6191 2.76828 43.7906 2.74284 43.9621 2.71625C44.0162 2.72203 44.0714 2.72897 44.1255 2.73475C44.1439 2.77522 44.1623 2.81569 44.1807 2.85732C44.1405 3.1094 44.0346 3.36958 44.0679 3.6101C44.7251 8.36497 43.9275 12.818 41.3172 16.8791C38.0531 21.9578 33.2916 24.659 27.4436 25.6025Z" fill="#3F7ABE"/>
<path d="M27.4434 25.6026C33.2913 24.659 38.0528 21.9578 41.3169 16.8791C43.9261 12.8181 44.7249 8.36498 44.0677 3.61011C44.0343 3.36843 44.1402 3.10826 44.1805 2.85733C47.8359 5.65799 49.575 9.44385 49.8397 13.986C49.3632 21.1819 45.877 26.0593 38.8217 27.9164C34.7392 28.9918 30.887 28.1095 27.4434 25.6037V25.6026Z" fill="#564797"/>
<path d="M43.4476 2.79487C34.7694 4.44266 29.3116 9.50628 27.3412 18.2089C26.8405 20.4198 26.9061 22.6712 27.2779 24.9099C27.3044 25.066 27.2767 25.2314 27.2744 25.3932C27.1306 25.3158 26.9694 25.2603 26.844 25.1585C23.6144 22.5348 21.9271 19.1085 21.5899 14.9758C21.5726 14.7607 21.492 14.5514 21.4414 14.3398C21.6704 10.5285 22.9169 7.19128 25.4847 4.26343C29.6845 -0.527293 39.4734 -1.53678 43.71 2.54857C43.6226 2.63067 43.5351 2.71277 43.4476 2.79487Z" fill="#62C5E3"/>
<path d="M49.8385 13.986C49.5726 9.44385 47.8347 5.65915 44.1793 2.85734C44.1609 2.81686 44.1424 2.77639 44.124 2.73476C46.7954 1.56686 51.9597 2.9961 53.1095 5.2209C54.2328 7.39597 52.3614 12.4122 49.8397 13.986H49.8385Z" fill="#4DC1EC"/>
<path d="M43.4473 2.79488C43.5347 2.71278 43.6222 2.63068 43.7097 2.54858C43.7937 2.60409 43.8766 2.66075 43.9606 2.71625C43.7891 2.74169 43.6176 2.76829 43.4473 2.79488Z" fill="#4DC1EC"/>
</g>
<defs>
<clipPath id="clip0_78_4567">
<rect width="35.6289" height="28.3662" fill="white" transform="translate(17.8145)"/>
</clipPath>
</defs>
</svg>
