<svg width="97" height="71" viewBox="0 0 97 71" fill="none" xmlns="http://www.w3.org/2000/svg">
<path d="M4.248 65L0.18 51.644H3.402L6.21 61.634L9.018 51.644H12.204L8.136 65H4.248ZM13.4722 65V51.644H16.5862V65H13.4722ZM17.8284 65L21.8964 51.644H25.7844L29.8524 65H26.6304L25.9464 62.57H21.6984L21.0324 65H17.8284ZM22.4184 59.78H25.2264L23.8224 54.308L22.4184 59.78ZM39.4169 65.09C38.5889 65.09 37.9109 64.922 37.3829 64.586C36.8549 64.25 36.4409 63.782 36.1409 63.182C35.8529 62.57 35.6489 61.856 35.5289 61.04C35.4089 60.212 35.3489 59.312 35.3489 58.34C35.3489 57.296 35.4149 56.354 35.5469 55.514C35.6909 54.674 35.9429 53.96 36.3029 53.372C36.6629 52.772 37.1729 52.316 37.8329 52.004C38.5049 51.68 39.3689 51.518 40.4249 51.518C41.0849 51.518 41.6669 51.548 42.1709 51.608C42.6869 51.656 43.1669 51.728 43.6109 51.824C44.0669 51.92 44.5289 52.028 44.9969 52.148V54.56C44.7329 54.524 44.3969 54.488 43.9889 54.452C43.5809 54.416 43.1189 54.386 42.6029 54.362C42.0989 54.326 41.5649 54.308 41.0009 54.308C40.2809 54.308 39.7349 54.428 39.3629 54.668C39.0029 54.908 38.7629 55.322 38.6429 55.91C38.5229 56.498 38.4629 57.308 38.4629 58.34C38.4629 59.144 38.4929 59.798 38.5529 60.302C38.6249 60.806 38.7389 61.202 38.8949 61.49C39.0509 61.766 39.2549 61.958 39.5069 62.066C39.7709 62.174 40.0829 62.228 40.4429 62.228C40.9109 62.228 41.3369 62.198 41.7209 62.138C42.1169 62.078 42.4289 62.018 42.6569 61.958V59.834H40.5509V57.368C40.8149 57.332 41.1209 57.302 41.4689 57.278C41.8289 57.254 42.2009 57.236 42.5849 57.224C42.9809 57.2 43.3409 57.188 43.6649 57.188C44.0849 57.188 44.4509 57.194 44.7629 57.206C45.0869 57.206 45.3809 57.218 45.6449 57.242V65H43.3049L42.8909 64.1C42.5669 64.304 42.0929 64.52 41.4689 64.748C40.8569 64.976 40.1729 65.09 39.4169 65.09ZM46.8851 65L50.9531 51.644H54.8411L58.9091 65H55.6871L55.0031 62.57H50.7551L50.0891 65H46.8851ZM51.4751 59.78H54.2831L52.8791 54.308L51.4751 59.78ZM59.8172 65L61.3832 51.644H64.3352L67.2332 61.418L70.1132 51.644H73.0292L74.6132 65H71.6252L70.5272 55.838L70.9952 55.856L68.6552 65H65.7392L63.3812 55.856L63.8852 55.838L62.8232 65H59.8172ZM79.4347 65.108C79.1467 65.108 78.8047 65.078 78.4087 65.018C78.0247 64.958 77.6527 64.832 77.2927 64.64C76.9327 64.436 76.6327 64.13 76.3927 63.722C76.1527 63.302 76.0327 62.738 76.0327 62.03V54.848C76.0327 54.224 76.1287 53.702 76.3207 53.282C76.5247 52.862 76.7767 52.538 77.0767 52.31C77.3887 52.07 77.7367 51.902 78.1207 51.806C78.5047 51.698 78.8767 51.644 79.2367 51.644C80.1967 51.644 81.0307 51.662 81.7387 51.698C82.4467 51.722 83.0707 51.752 83.6107 51.788C84.1507 51.824 84.6367 51.86 85.0687 51.896V54.524H80.1727C79.8487 54.524 79.5967 54.602 79.4167 54.758C79.2367 54.902 79.1467 55.136 79.1467 55.46V56.936L84.1867 57.116V59.564L79.1467 59.726V61.13C79.1467 61.394 79.1887 61.604 79.2727 61.76C79.3567 61.904 79.4707 62.012 79.6147 62.084C79.7587 62.156 79.9147 62.192 80.0827 62.192H85.0687V64.802C84.5407 64.862 83.9527 64.916 83.3047 64.964C82.6567 65.012 81.9967 65.042 81.3247 65.054C80.6647 65.078 80.0347 65.096 79.4347 65.108ZM90.9653 65.108C90.5933 65.108 90.2153 65.096 89.8313 65.072C89.4593 65.048 89.0873 65.018 88.7153 64.982C88.3553 64.934 88.0013 64.88 87.6533 64.82C87.3173 64.76 87.0053 64.694 86.7173 64.622V62.156C87.1013 62.192 87.5273 62.222 87.9953 62.246C88.4633 62.27 88.9373 62.288 89.4173 62.3C89.9093 62.312 90.3713 62.318 90.8033 62.318C91.2233 62.318 91.5773 62.288 91.8653 62.228C92.1653 62.156 92.3933 62.042 92.5493 61.886C92.7053 61.718 92.7833 61.49 92.7833 61.202V60.86C92.7833 60.536 92.6753 60.29 92.4593 60.122C92.2553 59.954 91.9913 59.87 91.6673 59.87H90.6233C89.2793 59.87 88.2593 59.576 87.5633 58.988C86.8673 58.4 86.5193 57.41 86.5193 56.018V55.388C86.5193 54.08 86.9033 53.114 87.6713 52.49C88.4393 51.854 89.5433 51.536 90.9833 51.536C91.5113 51.536 92.0213 51.566 92.5133 51.626C93.0053 51.674 93.4733 51.734 93.9173 51.806C94.3613 51.878 94.7513 51.956 95.0873 52.04V54.488C94.5353 54.452 93.9173 54.416 93.2333 54.38C92.5493 54.344 91.9253 54.326 91.3613 54.326C90.9893 54.326 90.6593 54.362 90.3713 54.434C90.0833 54.494 89.8613 54.614 89.7053 54.794C89.5493 54.962 89.4713 55.214 89.4713 55.55V55.802C89.4713 56.186 89.5793 56.468 89.7953 56.648C90.0233 56.828 90.3653 56.918 90.8213 56.918H92.0633C92.8913 56.918 93.5753 57.074 94.1153 57.386C94.6553 57.686 95.0573 58.106 95.3213 58.646C95.5973 59.174 95.7353 59.774 95.7353 60.446V61.112C95.7353 62.216 95.5373 63.056 95.1413 63.632C94.7573 64.208 94.2053 64.598 93.4853 64.802C92.7773 65.006 91.9373 65.108 90.9653 65.108Z" fill="black"/>
<g clip-path="url(#clip0_88_2494)">
<path d="M36.9723 34.2977C34.7115 34.2915 32.4104 34.558 30.1977 34.228C24.3753 33.3606 22.4122 29.1843 25.3537 24.077C26.3492 22.3498 27.6982 20.8256 28.8859 19.2083C28.9542 19.4918 29.0627 19.7722 29.086 20.0603C29.5387 25.5967 31.8135 30.1881 36.1644 33.7013C36.3319 33.8377 36.5505 33.912 36.7443 34.0158C36.7474 33.8005 36.7846 33.579 36.749 33.3683C36.2481 30.3693 36.1598 27.3548 36.8343 24.3915C39.4889 12.7348 46.8418 5.95148 58.5332 3.74407C58.7642 3.70844 58.9953 3.67436 59.2263 3.63873C59.2992 3.64648 59.3736 3.65577 59.4465 3.66352C59.4713 3.71773 59.4961 3.77195 59.5209 3.82772C59.4666 4.16541 59.324 4.51395 59.369 4.83616C60.2543 11.2059 59.1798 17.1713 55.663 22.6116C51.2656 29.4151 44.8508 33.0337 36.9723 34.2977Z" fill="#3F7ABE"/>
<path d="M36.9722 34.2978C44.8508 33.0337 51.2655 29.4151 55.663 22.6116C59.1782 17.1713 60.2543 11.2059 59.3689 4.83617C59.324 4.51241 59.4666 4.16387 59.5209 3.82773C64.4455 7.57955 66.7885 12.6512 67.1451 18.7359C66.5032 28.3757 61.8064 34.9096 52.3013 37.3974C46.8014 38.838 41.6116 37.6561 36.9722 34.2993V34.2978Z" fill="#564797"/>
<path d="M58.5332 3.74407C46.8417 5.95148 39.4888 12.7348 36.8342 24.393C36.1597 27.3548 36.2481 30.3709 36.749 33.3699C36.7846 33.579 36.7474 33.8005 36.7443 34.0174C36.5505 33.9136 36.3334 33.8392 36.1644 33.7029C31.8134 30.1881 29.5403 25.5982 29.086 20.0619C29.0627 19.7737 28.9542 19.4934 28.8859 19.2099C29.1945 14.1042 30.8738 9.6336 34.3331 5.71138C39.9912 -0.706382 53.179 -2.05871 58.8867 3.41412C58.7689 3.5241 58.651 3.63409 58.5332 3.74407Z" fill="#62C5E3"/>
<path d="M67.1436 18.7359C66.7854 12.6512 64.444 7.58109 59.5194 3.82771C59.4946 3.77349 59.4698 3.71928 59.4449 3.66351C63.0439 2.09896 70.0014 4.0136 71.5504 6.99399C73.0638 9.90777 70.5425 16.6276 67.1452 18.7359H67.1436Z" fill="#4DC1EC"/>
<path d="M58.5332 3.74407C58.651 3.63409 58.7689 3.52411 58.8867 3.41412C58.9999 3.48848 59.1116 3.56438 59.2248 3.63874C58.9937 3.67282 58.7627 3.70844 58.5332 3.74407Z" fill="#4DC1EC"/>
</g>
<defs>
<clipPath id="clip0_88_2494">
<rect width="48" height="38" fill="white" transform="translate(24)"/>
</clipPath>
</defs>
</svg>
